<!-- Набор иконок генерируется автоматически, ручные изменения будут перезатерты -->
<svg xmlns="http://www.w3.org/2000/svg" style="width:0; height:0; visibility:hidden; display: none;">
  <symbol id="icon_angle" viewBox="0 0 7 11">
     <path d="M0.375646 4.73937L4.82371 0.359248C5.10666 0.0804771 5.57337 0.0721116 5.86598 0.340566C6.15862 0.608775 6.16657 1.05215 5.88373 1.33065L1.94788 5.2064L6.01998 8.93847C6.31262 9.20679 6.32057 9.65012 6.03773 9.92864C5.75489 10.2073 5.28821 10.2156 4.99546 9.94733L0.393274 5.72935C0.246954 5.59518 0.171893 5.41743 0.168682 5.23831C0.16547 5.0591 0.234251 4.87864 0.375646 4.73937Z"/> 
  </symbol>
  <symbol id="icon_burger" viewBox="0 0 20 14">
     <path fill-rule="evenodd" clip-rule="evenodd" d="M0 1C0 0.447715 0.447715 0 1 0H19C19.5523 0 20 0.447715 20 1C20 1.55228 19.5523 2 19 2H1C0.447715 2 0 1.55228 0 1ZM0 7C0 6.44772 0.447715 6 1 6H19C19.5523 6 20 6.44772 20 7C20 7.55228 19.5523 8 19 8H1C0.447715 8 0 7.55228 0 7ZM1 12C0.447715 12 0 12.4477 0 13C0 13.5523 0.447715 14 1 14H19C19.5523 14 20 13.5523 20 13C20 12.4477 19.5523 12 19 12H1Z"/> 
  </symbol>
  <symbol id="icon_check" viewBox="0 0 24 24">
     <path d="M6.13846 12.95C6.04615 12.86 6 12.725 6 12.635C6 12.545 6.04615 12.41 6.13846 12.32L6.78462 11.69C6.96923 11.51 7.24615 11.51 7.43077 11.69L7.47692 11.735L10.0154 14.39C10.1077 14.48 10.2462 14.48 10.3385 14.39L16.5231 8.135H16.5692C16.7538 7.955 17.0308 7.955 17.2154 8.135L17.8615 8.765C18.0462 8.945 18.0462 9.215 17.8615 9.395L10.4769 16.865C10.3846 16.955 10.2923 17 10.1538 17C10.0154 17 9.92308 16.955 9.83077 16.865L6.23077 13.085L6.13846 12.95Z"/> 
  </symbol>
  <symbol id="icon_close" viewBox="0 0 24 26">
     <path fill-rule="evenodd" clip-rule="evenodd" d="M4.31835 19.052C3.8941 19.4912 3.8941 20.2032 4.31835 20.6424C4.74261 21.0815 5.43046 21.0815 5.85471 20.6424L12 14.2811L18.1454 20.6424C18.5697 21.0816 19.2575 21.0816 19.6818 20.6424C20.106 20.2033 20.106 19.4912 19.6818 19.0521L13.5364 12.6907L19.6819 6.32915C20.1062 5.88999 20.1062 5.17796 19.6819 4.7388C19.2577 4.29963 18.5698 4.29963 18.1456 4.7388L12 11.1003L5.85455 4.73886C5.43029 4.29969 4.74244 4.29969 4.31819 4.73886C3.89394 5.17802 3.89394 5.89005 4.31819 6.32922L10.4637 12.6907L4.31835 19.052Z"/> 
  </symbol>
  <symbol id="icon_crown" viewBox="0 0 24 24">
     <path d="M15.5 11.7429L12 7L8.5 11.7429L4 7L5 17.5398H19L20 7L15.5 11.7429Z"/> 
  </symbol>
  <symbol id="icon_ellipsis" viewBox="0 0 12 12">
      <g transform="translate(1.131579,5.0526316)" id="g3726" fill="none"> <path d="M 2,1 C 2,1.55228 1.55228,2 1,2 0.447715,2 0,1.55228 0,1 0,0.447715 0.447715,0 1,0 1.55228,0 2,0.447715 2,1 Z M 6,1 C 6,1.55228 5.55228,2 5,2 4.44772,2 4,1.55228 4,1 4,0.447715 4.44772,0 5,0 5.55228,0 6,0.447715 6,1 Z M 9,2 C 9.55229,2 10,1.55228 10,1 10,0.447715 9.55229,0 9,0 8.44771,0 8,0.447715 8,1 8,1.55228 8.44771,2 9,2 Z" id="path3715" clip-rule="evenodd" fill="#000000" fill-rule="evenodd"/> </g> 
  </symbol>
  <symbol id="icon_eye" viewBox="0 0 24 24">
     <path d="M12 8C8.36364 8 5.23636 10.2733 4 13.5C5.23636 16.7267 8.36364 19 12 19C15.6364 19 18.7636 16.7267 20 13.5C18.7636 10.2733 15.6364 8 12 8ZM12 17.1667C9.96364 17.1667 8.36364 15.5533 8.36364 13.5C8.36364 11.4467 9.96364 9.83333 12 9.83333C14.0364 9.83333 15.6364 11.4467 15.6364 13.5C15.6364 15.5533 14.0364 17.1667 12 17.1667ZM12 11.3C10.7636 11.3 9.81818 12.2533 9.81818 13.5C9.81818 14.7467 10.7636 15.7 12 15.7C13.2364 15.7 14.1818 14.7467 14.1818 13.5C14.1818 12.2533 13.2364 11.3 12 11.3Z"/> 
  </symbol>
  <symbol id="icon_heart" viewBox="0 0 24 24">
     <path d="M17.9802 10.2801C17.805 8.37929 16.4404 7.00023 14.7326 7.00023C13.5948 7.00023 12.5531 7.60387 11.9669 8.57133C11.386 7.59135 10.3869 7 9.26738 7C7.55981 7 6.19496 8.37907 6.02002 10.2799C6.00618 10.3638 5.9494 10.8057 6.12203 11.5263C6.37081 12.5656 6.94547 13.511 7.78344 14.2596L11.9641 18L16.2165 14.2598C17.0545 13.511 17.6291 12.5659 17.8779 11.5263C18.0506 10.8059 17.9938 10.3641 17.9802 10.2801Z" fill="#9C3C3B"/> 
  </symbol>
  <symbol id="icon_paint-roller" viewBox="0 0 24 24">
     <path fill-rule="evenodd" clip-rule="evenodd" d="M19 7.8C19 7.28453 18.5821 6.86667 18.0667 6.86667L18.0008 6.86667L18.0008 6C18.0008 5.44772 17.5531 5 17.0008 5L7.00078 5C6.4485 5 6.00078 5.44771 6.00078 6L6.00078 6.86667L5.93333 6.86667C5.41787 6.86667 5 7.28453 5 7.8C5 8.31547 5.41787 8.73333 5.93333 8.73333L6.00078 8.73333L6.00078 9.6C6.00078 10.1523 6.4485 10.6 7.00078 10.6L17.0003 10.6L17.0003 11.9231L11.7864 13.2506C11.448 13.3367 11.2063 13.595 11.1292 13.9066C11.0465 14.0522 10.9992 14.2206 10.9992 14.4L10.9992 18C10.9992 18.5523 11.4469 19 11.9992 19C12.5515 19 12.9992 18.5523 12.9992 18L12.9992 14.8767L18.2126 13.5493C18.5504 13.4633 18.7918 13.2057 18.8694 12.895C18.9527 12.749 19.0003 12.5801 19.0003 12.4L19.0003 7.86667C19.0003 7.85403 19 7.84144 18.9996 7.82891C18.9999 7.81931 19 7.80967 19 7.8Z" fill="#9C3C3B"/> 
  </symbol>
  <symbol id="icon_placemark" viewBox="0 0 24 24">
     <path d="M12 5C9.24299 5 7 7.27451 7 10.0702C7 13.5398 11.4745 18.6334 11.665 18.8486C11.844 19.0507 12.1564 19.0503 12.335 18.8486C12.5255 18.6334 17 13.5398 17 10.0702C16.9999 7.27451 14.757 5 12 5ZM12 12.6212C10.6129 12.6212 9.4844 11.4769 9.4844 10.0702C9.4844 8.66363 10.6129 7.51929 12 7.51929C13.3871 7.51929 14.5156 8.66366 14.5156 10.0703C14.5156 11.4769 13.3871 12.6212 12 12.6212Z" fill="#9C3C3B"/> 
  </symbol>
  <symbol id="icon_point" viewBox="0 0 16 23">
     <title> point </title> <g id="Layer_2" data-name="Layer 2"> <g id="Layer_1-2" data-name="Layer 1"> <path id="point" d="M8,18.25a3,3,0,0,0,2.1-.85C12.79,14.74,16,11,16,8A8,8,0,0,0,0,8C0,11,3.21,14.74,5.9,17.4A3,3,0,0,0,8,18.25ZM8,2a6,6,0,0,1,6,6c0,1.71-2,4.69-5.3,8a1,1,0,0,1-1.39,0C4,12.69,2,9.71,2,8A6,6,0,0,1,8,2Zm0,8a2,2,0,1,1,2-2A2,2,0,0,1,8,10Zm7,9c0,2.28-3,4-7,4s-7-1.72-7-4a3.35,3.35,0,0,1,1.9-2.79l1.47,1.48C3.49,18.09,3,18.59,3,19c0,.82,2,2,5,2s5-1.18,5-2c0-.41-.49-.91-1.37-1.31l1.47-1.48A3.35,3.35,0,0,1,15,19Z"/> </g> </g> 
  </symbol>
  <symbol id="icon_rouble" viewBox="0 0 24 24">
     <path d="M7.25007 15.2498H9.00011V17.75C9.00011 17.823 9.02346 17.8828 9.07045 17.9295C9.1173 17.9765 9.17721 18 9.25018 18H10.5548C10.6225 18 10.6811 17.9765 10.7306 17.9295C10.7801 17.8828 10.8047 17.823 10.8047 17.75V15.2498H14.7501C14.8229 15.2498 14.8828 15.2266 14.9298 15.1796C14.9768 15.1327 15.0001 15.0729 15.0001 14.9999V13.9998C15.0001 13.9273 14.9768 13.8671 14.9298 13.8204C14.8829 13.7734 14.8229 13.7499 14.7501 13.7499H10.8046V12.828H13.4609C14.5025 12.828 15.3526 12.5106 16.0117 11.8749C16.6704 11.2399 17 10.4196 17 9.41398C17 8.40905 16.6704 7.58874 16.0117 6.95307C15.3528 6.31804 14.5025 6 13.4609 6H9.25005C9.17706 6 9.11728 6.02348 9.07032 6.07021C9.02346 6.1172 8.99998 6.17736 8.99998 6.24994V11.1641H7.25007C7.1771 11.1641 7.1173 11.1888 7.07034 11.2383C7.0235 11.2878 7 11.3464 7 11.414V12.578C7 12.651 7.02335 12.7108 7.07034 12.7577C7.11733 12.8047 7.17697 12.8279 7.25007 12.8279H9.00011V13.7499H7.25007C7.1771 13.7499 7.1173 13.7734 7.07034 13.8204C7.0235 13.8671 7 13.9271 7 13.9998V14.9999C7 15.0728 7.02335 15.1326 7.07034 15.1796C7.1173 15.2266 7.17708 15.2498 7.25007 15.2498ZM10.8046 7.66423H13.3046C13.8566 7.66423 14.3019 7.82563 14.6405 8.14854C14.979 8.47147 15.1483 8.89349 15.1483 9.41411C15.1483 9.93499 14.979 10.3571 14.6405 10.6797C14.3019 11.0029 13.8566 11.1643 13.3046 11.1643H10.8046V7.66423Z" fill="#9C3C3B"/> 
  </symbol>
  <symbol id="icon_search" viewBox="0 0 16 16">
     <path d="M15.7567 14.5735L11.8125 10.6129C12.8266 9.44901 13.3823 7.98455 13.3823 6.45999C13.3823 2.89801 10.3806 0 6.69113 0C3.0017 0 0 2.89801 0 6.45999C0 10.022 3.0017 12.92 6.69113 12.92C8.07619 12.92 9.39609 12.5167 10.5246 11.751L14.4988 15.7416C14.6649 15.9082 14.8883 16 15.1278 16C15.3544 16 15.5694 15.9166 15.7326 15.7649C16.0794 15.4428 16.0904 14.9085 15.7567 14.5735ZM6.69113 1.68522C9.4182 1.68522 11.6367 3.82713 11.6367 6.45999C11.6367 9.09286 9.4182 11.2348 6.69113 11.2348C3.96406 11.2348 1.74551 9.09286 1.74551 6.45999C1.74551 3.82713 3.96406 1.68522 6.69113 1.68522Z" fill="#3A3430"/> 
  </symbol>
  <symbol id="icon_small-calendar" viewBox="0 0 24 24">
     <path fill-rule="evenodd" clip-rule="evenodd" d="M6 7C6 6.44772 6.44772 6 7 6H7.16667C7.71895 6 8.16667 6.44772 8.16667 7V8H15.8333V7C15.8333 6.44772 16.281 6 16.8333 6H17C17.5523 6 18 6.44772 18 7V9V15V17C18 17.5523 17.5523 18 17 18H7C6.44772 18 6 17.5523 6 17V15V9V7Z" fill="#9C3C3B"/> 
  </symbol>
  <symbol id="icon_star-full" viewBox="0 0 11 10">
     <path d="M10.7613 4.53183C10.9778 4.3316 11.0542 4.03775 10.9608 3.76458C10.8672 3.49141 10.6234 3.29641 10.3238 3.25503L7.66044 2.88781C7.547 2.87213 7.44899 2.80462 7.39833 2.70702L6.20759 0.417172C6.07389 0.159888 5.80253 0 5.50011 0C5.19791 0 4.92655 0.159888 4.79285 0.417172L3.60189 2.70723C3.55123 2.80483 3.453 2.87234 3.33956 2.88802L0.676158 3.25524C0.376822 3.29641 0.132772 3.49162 0.0391609 3.76479C-0.0542301 4.03795 0.0222007 4.33181 0.238718 4.53204L2.16579 6.31442C2.24795 6.3905 2.28561 6.50002 2.26623 6.60703L1.81161 9.12386C1.7713 9.3454 1.83253 9.56088 1.98363 9.7308C2.21843 9.99561 2.62834 10.0763 2.95609 9.91285L5.338 8.72445C5.43756 8.67492 5.56288 8.67533 5.66222 8.72445L8.04435 9.91285C8.16021 9.97074 8.28378 10 8.41131 10C8.64413 10 8.86483 9.90177 9.01659 9.7308C9.16791 9.56088 9.22892 9.34498 9.18861 9.12386L8.73377 6.60703C8.71439 6.49981 8.75205 6.3905 8.83421 6.31442L10.7613 4.53183Z"/> 
  </symbol>
</svg>