<svg width="24" height="26" viewBox="0 0 24 26" fill="none" xmlns="http://www.w3.org/2000/svg">
	<path fill-rule="evenodd" clip-rule="evenodd" d="M4.31835 19.052C3.8941 19.4912 3.8941 20.2032 4.31835 20.6424C4.74261 21.0815 5.43046 21.0815 5.85471 20.6424L12 14.2811L18.1454 20.6424C18.5697 21.0816 19.2575 21.0816 19.6818 20.6424C20.106 20.2033 20.106 19.4912 19.6818 19.0521L13.5364 12.6907L19.6819 6.32915C20.1062 5.88999 20.1062 5.17796 19.6819 4.7388C19.2577 4.29963 18.5698 4.29963 18.1456 4.7388L12 11.1003L5.85455 4.73886C5.43029 4.29969 4.74244 4.29969 4.31819 4.73886C3.89394 5.17802 3.89394 5.89005 4.31819 6.32922L10.4637 12.6907L4.31835 19.052Z" />
</svg>
