<svg width="24" height="24" viewBox="0 0 24 24" fill="none" xmlns="http://www.w3.org/2000/svg">
	<path d="M12 8C8.36364 8 5.23636 10.2733 4 13.5C5.23636 16.7267 8.36364 19 12 19C15.6364 19 18.7636 16.7267 20 13.5C18.7636 10.2733 15.6364 8 12 8ZM12 17.1667C9.96364 17.1667 8.36364 15.5533 8.36364 13.5C8.36364 11.4467 9.96364 9.83333 12 9.83333C14.0364 9.83333 15.6364 11.4467 15.6364 13.5C15.6364 15.5533 14.0364 17.1667 12 17.1667ZM12 11.3C10.7636 11.3 9.81818 12.2533 9.81818 13.5C9.81818 14.7467 10.7636 15.7 12 15.7C13.2364 15.7 14.1818 14.7467 14.1818 13.5C14.1818 12.2533 13.2364 11.3 12 11.3Z"/>
</svg>
