<svg width="11" height="10" viewBox="0 0 11 10" fill="none" xmlns="http://www.w3.org/2000/svg">
	<path d="M10.7613 4.53183C10.9778 4.3316 11.0542 4.03775 10.9608 3.76458C10.8672 3.49141 10.6234 3.29641 10.3238 3.25503L7.66044 2.88781C7.547 2.87213 7.44899 2.80462 7.39833 2.70702L6.20759 0.417172C6.07389 0.159888 5.80253 0 5.50011 0C5.19791 0 4.92655 0.159888 4.79285 0.417172L3.60189 2.70723C3.55123 2.80483 3.453 2.87234 3.33956 2.88802L0.676158 3.25524C0.376822 3.29641 0.132772 3.49162 0.0391609 3.76479C-0.0542301 4.03795 0.0222007 4.33181 0.238718 4.53204L2.16579 6.31442C2.24795 6.3905 2.28561 6.50002 2.26623 6.60703L1.81161 9.12386C1.7713 9.3454 1.83253 9.56088 1.98363 9.7308C2.21843 9.99561 2.62834 10.0763 2.95609 9.91285L5.338 8.72445C5.43756 8.67492 5.56288 8.67533 5.66222 8.72445L8.04435 9.91285C8.16021 9.97074 8.28378 10 8.41131 10C8.64413 10 8.86483 9.90177 9.01659 9.7308C9.16791 9.56088 9.22892 9.34498 9.18861 9.12386L8.73377 6.60703C8.71439 6.49981 8.75205 6.3905 8.83421 6.31442L10.7613 4.53183Z"/>
</svg>
