<svg width="24" height="24" viewBox="0 0 24 24" fill="none" xmlns="http://www.w3.org/2000/svg">
	<path d="M6.13846 12.95C6.04615 12.86 6 12.725 6 12.635C6 12.545 6.04615 12.41 6.13846 12.32L6.78462 11.69C6.96923 11.51 7.24615 11.51 7.43077 11.69L7.47692 11.735L10.0154 14.39C10.1077 14.48 10.2462 14.48 10.3385 14.39L16.5231 8.135H16.5692C16.7538 7.955 17.0308 7.955 17.2154 8.135L17.8615 8.765C18.0462 8.945 18.0462 9.215 17.8615 9.395L10.4769 16.865C10.3846 16.955 10.2923 17 10.1538 17C10.0154 17 9.92308 16.955 9.83077 16.865L6.23077 13.085L6.13846 12.95Z" />
</svg>
