<?xml version="1.0" encoding="UTF-8" standalone="no"?>
<svg
   xmlns:dc="http://purl.org/dc/elements/1.1/"
   xmlns:cc="http://creativecommons.org/ns#"
   xmlns:rdf="http://www.w3.org/1999/02/22-rdf-syntax-ns#"
   xmlns:svg="http://www.w3.org/2000/svg"
   xmlns="http://www.w3.org/2000/svg"
   style="fill:none"
   id="svg4"
   version="1.1"
   viewBox="0 0 12 12"
   height="12"
   width="12">
  <metadata
     id="metadata10">
    <rdf:RDF>
      <cc:Work
         rdf:about="">
        <dc:format>image/svg+xml</dc:format>
        <dc:type
           rdf:resource="http://purl.org/dc/dcmitype/StillImage" />
        <dc:title></dc:title>
      </cc:Work>
    </rdf:RDF>
  </metadata>
  <defs
     id="defs8" />
  <g
     transform="translate(1.131579,5.0526316)"
     id="g3726"
     style="fill:none">
    <path
       style="clip-rule:evenodd;fill:#000000;fill-rule:evenodd"
       d="M 2,1 C 2,1.55228 1.55228,2 1,2 0.447715,2 0,1.55228 0,1 0,0.447715 0.447715,0 1,0 1.55228,0 2,0.447715 2,1 Z M 6,1 C 6,1.55228 5.55228,2 5,2 4.44772,2 4,1.55228 4,1 4,0.447715 4.44772,0 5,0 5.55228,0 6,0.447715 6,1 Z M 9,2 C 9.55229,2 10,1.55228 10,1 10,0.447715 9.55229,0 9,0 8.44771,0 8,0.447715 8,1 8,1.55228 8.44771,2 9,2 Z"
       id="path3715" />
  </g>
</svg>
