<svg width="24" height="24" viewBox="0 0 24 24" fill="none" xmlns="http://www.w3.org/2000/svg">
	<path fill-rule="evenodd" clip-rule="evenodd" d="M19 7.8C19 7.28453 18.5821 6.86667 18.0667 6.86667L18.0008 6.86667L18.0008 6C18.0008 5.44772 17.5531 5 17.0008 5L7.00078 5C6.4485 5 6.00078 5.44771 6.00078 6L6.00078 6.86667L5.93333 6.86667C5.41787 6.86667 5 7.28453 5 7.8C5 8.31547 5.41787 8.73333 5.93333 8.73333L6.00078 8.73333L6.00078 9.6C6.00078 10.1523 6.4485 10.6 7.00078 10.6L17.0003 10.6L17.0003 11.9231L11.7864 13.2506C11.448 13.3367 11.2063 13.595 11.1292 13.9066C11.0465 14.0522 10.9992 14.2206 10.9992 14.4L10.9992 18C10.9992 18.5523 11.4469 19 11.9992 19C12.5515 19 12.9992 18.5523 12.9992 18L12.9992 14.8767L18.2126 13.5493C18.5504 13.4633 18.7918 13.2057 18.8694 12.895C18.9527 12.749 19.0003 12.5801 19.0003 12.4L19.0003 7.86667C19.0003 7.85403 19 7.84144 18.9996 7.82891C18.9999 7.81931 19 7.80967 19 7.8Z" fill="#9C3C3B"/>
</svg>
