<svg width="24" height="24" viewBox="0 0 24 24" fill="none" xmlns="http://www.w3.org/2000/svg">
	<path d="M12 5C9.24299 5 7 7.27451 7 10.0702C7 13.5398 11.4745 18.6334 11.665 18.8486C11.844 19.0507 12.1564 19.0503 12.335 18.8486C12.5255 18.6334 17 13.5398 17 10.0702C16.9999 7.27451 14.757 5 12 5ZM12 12.6212C10.6129 12.6212 9.4844 11.4769 9.4844 10.0702C9.4844 8.66363 10.6129 7.51929 12 7.51929C13.3871 7.51929 14.5156 8.66366 14.5156 10.0703C14.5156 11.4769 13.3871 12.6212 12 12.6212Z" fill="#9C3C3B"/>
</svg>
