<svg xmlns="http://www.w3.org/2000/svg" width="16" height="23" viewBox="0 0 16 23"><title>point</title><g id="Layer_2" data-name="Layer 2"><g id="Layer_1-2" data-name="Layer 1"><path id="point" d="M8,18.25a3,3,0,0,0,2.1-.85C12.79,14.74,16,11,16,8A8,8,0,0,0,0,8C0,11,3.21,14.74,5.9,17.4A3,3,0,0,0,8,18.25ZM8,2a6,6,0,0,1,6,6c0,1.71-2,4.69-5.3,8a1,1,0,0,1-1.39,0C4,12.69,2,9.71,2,8A6,6,0,0,1,8,2Zm0,8a2,2,0,1,1,2-2A2,2,0,0,1,8,10Zm7,9c0,2.28-3,4-7,4s-7-1.72-7-4a3.35,3.35,0,0,1,1.9-2.79l1.47,1.48C3.49,18.09,3,18.59,3,19c0,.82,2,2,5,2s5-1.18,5-2c0-.41-.49-.91-1.37-1.31l1.47-1.48A3.35,3.35,0,0,1,15,19Z"/></g></g></svg>