<svg width="24" height="24" viewBox="0 0 24 24" fill="none" xmlns="http://www.w3.org/2000/svg">
	<path d="M7.25007 15.2498H9.00011V17.75C9.00011 17.823 9.02346 17.8828 9.07045 17.9295C9.1173 17.9765 9.17721 18 9.25018 18H10.5548C10.6225 18 10.6811 17.9765 10.7306 17.9295C10.7801 17.8828 10.8047 17.823 10.8047 17.75V15.2498H14.7501C14.8229 15.2498 14.8828 15.2266 14.9298 15.1796C14.9768 15.1327 15.0001 15.0729 15.0001 14.9999V13.9998C15.0001 13.9273 14.9768 13.8671 14.9298 13.8204C14.8829 13.7734 14.8229 13.7499 14.7501 13.7499H10.8046V12.828H13.4609C14.5025 12.828 15.3526 12.5106 16.0117 11.8749C16.6704 11.2399 17 10.4196 17 9.41398C17 8.40905 16.6704 7.58874 16.0117 6.95307C15.3528 6.31804 14.5025 6 13.4609 6H9.25005C9.17706 6 9.11728 6.02348 9.07032 6.07021C9.02346 6.1172 8.99998 6.17736 8.99998 6.24994V11.1641H7.25007C7.1771 11.1641 7.1173 11.1888 7.07034 11.2383C7.0235 11.2878 7 11.3464 7 11.414V12.578C7 12.651 7.02335 12.7108 7.07034 12.7577C7.11733 12.8047 7.17697 12.8279 7.25007 12.8279H9.00011V13.7499H7.25007C7.1771 13.7499 7.1173 13.7734 7.07034 13.8204C7.0235 13.8671 7 13.9271 7 13.9998V14.9999C7 15.0728 7.02335 15.1326 7.07034 15.1796C7.1173 15.2266 7.17708 15.2498 7.25007 15.2498ZM10.8046 7.66423H13.3046C13.8566 7.66423 14.3019 7.82563 14.6405 8.14854C14.979 8.47147 15.1483 8.89349 15.1483 9.41411C15.1483 9.93499 14.979 10.3571 14.6405 10.6797C14.3019 11.0029 13.8566 11.1643 13.3046 11.1643H10.8046V7.66423Z" fill="#9C3C3B"/>
</svg>
